<svg xmlns="http://www.w3.org/2000/svg" viewBox="0 0 160 160" width="100%" height="100%">
  <style>
    .top { fill: #6b3762; }
    .left { fill: #54254b; }
    .right { fill: #381131; }
    .door { fill: #ffffff; }
    .sparkle-large { fill: #6b3762; }
    .sparkle-medium { fill: #54254b; }
    .sparkle-small { fill: #54254b; }
    @media (prefers-color-scheme: dark) {
      .top { fill: #b574a7; }
      .left { fill: #8e5081; }
      .right { fill: #5e2a53; }
      .sparkle-large { fill: #b574a7; }
      .sparkle-medium { fill: #8e5081; }
      .sparkle-small { fill: #8e5081; }
    }
  </style>
  <!-- Sparkles -->
  <path class="sparkle-large" d="M 70,10 Q 70,25 85,25 Q 70,25 70,40 Q 70,25 55,25 Q 70,25 70,10 Z" />
  <path class="sparkle-medium" d="M 90,27 Q 90,35 98,35 Q 90,35 90,43 Q 90,35 82,35 Q 90,35 90,27 Z" />
  <path class="sparkle-small" d="M 50,39 Q 50,45 56,45 Q 50,45 50,51 Q 50,45 44,45 Q 50,45 50,39 Z" />

  <!-- Middle Block -->
  <path class="top" d="M 80,60 L 55,46 L 80,32 L 105,46 Z" />
  <path class="left" d="M 80,100 L 55,86 L 55,46 L 80,60 Z" />
  <path class="right" d="M 80,100 L 105,86 L 105,46 L 80,60 Z" />
  <path class="door" d="M 88,95.5 L 88,71 C 88,65 97,60 97,66 L 97,90.5 Z" />

  <!-- Left Block -->
  <path class="top" d="M 55,74 L 30,60 L 55,46 L 80,60 Z" />
  <path class="left" d="M 55,114 L 30,100 L 30,60 L 55,74 Z" />
  <path class="right" d="M 55,114 L 80,100 L 80,60 L 55,74 Z" />
  <path class="door" d="M 63,109.5 L 63,85 C 63,79 72,74 72,80 L 72,104.5 Z" />

  <!-- Right Block -->
  <path class="top" d="M 105,74 L 80,60 L 105,46 L 130,60 Z" />
  <path class="left" d="M 105,114 L 80,100 L 80,60 L 105,74 Z" />
  <path class="right" d="M 105,114 L 130,100 L 130,60 L 105,74 Z" />
  <path class="door" d="M 113,109.5 L 113,85 C 113,79 122,74 122,80 L 122,104.5 Z" />
</svg>